# xmcd
#
# Track frame offsets: 
#        150
#        13312
#        27149
#        41887
#        57974
#        71586
#        86998
#        102635
#        116172
#        131435
#        144597
#
# Disc length: 2131 seconds
#
# Revision: 0
# Processed by: cddbd v1.4PL0 Copyright (c) Steve Scherf et al.
# Submitted via: ExactAudioCopy v0.95a3
#
DISCID=a508510b
DTITLE=Scotty Emerick - The Coast Is Clear
DYEAR=2003
DGENRE=Country
TTITLE0=The Coast Is Clear
TTITLE1=Where's My Beer
TTITLE2=I Can't Take You Anywhere
TTITLE3=I'd Be Over You
TTITLE4=Enjoy Yourself
TTITLE5=Uncomplicated
TTITLE6=So Much More
TTITLE7=She Let Herself Go
TTITLE8=She Was Never Mine To Lose
TTITLE9=Sittin' Pretty
TTITLE10=Show You About Leaving
EXTD=
EXTT0=
EXTT1=
EXTT2=
EXTT3=
EXTT4=
EXTT5=
EXTT6=
EXTT7=
EXTT8=
EXTT9=
EXTT10=
PLAYORDER=
